ffmpeg started on 2026-01-14 at 14:18:00
Report written to "D:\Convert\FFMetrics\reports\ssim_report-6.txt"
Log level: 32
Command line:
ffmpeg -hide_banner -nostdin -r 24000/1001 -i "F:\\Convert\\files\\[DC] Make Heroine ga Oosugiru - 07_Telegram_HEVC(134).mkv" -r 24000/1001 -i "F:\\Convert\\files\\[DC] Make Heroine ga Oosugiru - 07_Telegram.mp4" -lavfi "[0:v]settb=AVTB,setpts=PTS-STARTPTS,format=pix_fmts=yuv420p10le,fps=24000/1001,scale=1920:1080:flags=lanczos:param0=3:out_range=limited:out_color_matrix=bt709:out_chroma_loc=left,setsar=1/1,setdar=(1920/1080)*(1/1),colorspace=format=yuv420p10:range=tv:primaries=bt709:trc=bt709:space=bt709:fast=0[main];[1:v]settb=AVTB,setpts=PTS-STARTPTS,format=pix_fmts=yuv420p,fps=24000/1001,scale=1920:1080:flags=lanczos:param0=3:out_range=limited:out_color_matrix=bt709:out_chroma_loc=left,setsar=1.000,setdar=1.778,colorspace=format=yuv420p:range=tv:primaries=bt709:trc=bt709:space=bt709:fast=0[ref];[main][ref]ssim=eof_action=endall:stats_file='D\\:/Convert/FFMetrics/logs/ssim_logfile-6.txt'" -f null -
Input #0, matroska,webm, from 'F:\Convert\files\[DC] Make Heroine ga Oosugiru - 07_Telegram_HEVC(134).mkv':
  Metadata:
    COMPATIBLE_BRANDS: isomiso2avc1mp41
    MAJOR_BRAND     : isom
    MINOR_VERSION   : 512
    ENCODER         : Lavf61.7.100
  Duration: 00:24:06.79, start: -0.021000, bitrate: 981 kb/s
  Stream #0:0: Video: hevc (Main 10), yuv420p10le(tv, bt709, progressive), 1920x1080 [SAR 1:1 DAR 16:9], 23.98 fps, 23.98 tbr, 1k tbn (default)
      Metadata:
        HANDLER_NAME    : VideoHandler
        VENDOR_ID       : [0][0][0][0]
        ENCODER         : Lavc61.19.100 libx265
        BPS             : 784114
        DURATION        : 00:24:06.569708333
        NUMBER_OF_FRAMES: 34683
        NUMBER_OF_BYTES : 141784444
        _STATISTICS_WRITING_APP: mkvpropedit v94.0 ('Initiate') 64-bit
        _STATISTICS_WRITING_DATE_UTC: 2026-01-14 09:58:03
        _STATISTICS_TAGS: BPS DURATION NUMBER_OF_FRAMES NUMBER_OF_BYTES
  Stream #0:1: Audio: aac (LC), 48000 Hz, stereo, fltp (default)
      Metadata:
        HANDLER_NAME    : SoundHandler
        VENDOR_ID       : [0][0][0][0]
        ENCODER         : Lavc61.19.100 aac
        BPS             : 193194
        DURATION        : 00:24:06.784000000
        NUMBER_OF_FRAMES: 67819
        NUMBER_OF_BYTES : 34938755
        _STATISTICS_WRITING_APP: mkvpropedit v94.0 ('Initiate') 64-bit
        _STATISTICS_WRITING_DATE_UTC: 2026-01-14 09:58:03
        _STATISTICS_TAGS: BPS DURATION NUMBER_OF_FRAMES NUMBER_OF_BYTES
Input #1, mov,mp4,m4a,3gp,3g2,mj2, from 'F:\Convert\files\[DC] Make Heroine ga Oosugiru - 07_Telegram.mp4':
  Metadata:
    major_brand     : isom
    minor_version   : 512
    compatible_brands: isomiso2avc1mp41
    encoder         : Lavf60.16.100
  Duration: 00:24:06.74, start: 0.000000, bitrate: 3764 kb/s
  Stream #1:0[0x1](und): Video: h264 (High) (avc1 / 0x31637661), yuv420p(tv, bt709, progressive), 1920x1080 [SAR 1:1 DAR 16:9], 3616 kb/s, 23.98 fps, 23.98 tbr, 24k tbn (default)
      Metadata:
        handler_name    : VideoHandler
        vendor_id       : [0][0][0][0]
        encoder         : Lavc60.31.102 h264_qsv
  Stream #1:1[0x2](und): Audio: aac (HE-AACv2) (mp4a / 0x6134706D), 48000 Hz, stereo, fltp, 144 kb/s (default)
      Metadata:
        handler_name    : SoundHandler
        vendor_id       : [0][0][0][0]
Stream mapping:
  Stream #0:0 (hevc) -> settb:default
  Stream #1:0 (h264) -> settb:default
  ssim:default -> Stream #0:0 (wrapped_avframe)
  Stream #0:1 -> #0:1 (aac (native) -> pcm_s16le (native))
Output #0, null, to 'pipe:':
  Metadata:
    COMPATIBLE_BRANDS: isomiso2avc1mp41
    MAJOR_BRAND     : isom
    MINOR_VERSION   : 512
    encoder         : Lavf61.7.100
  Stream #0:0: Video: wrapped_avframe, yuv420p10le(tv, bt709, progressive), 1920x1080 [SAR 1:1 DAR 16:9], q=2-31, 200 kb/s, 23.98 fps, 23.98 tbn
      Metadata:
        encoder         : Lavc61.19.100 wrapped_avframe
  Stream #0:1: Audio: pcm_s16le, 48000 Hz, stereo, s16, 1536 kb/s (default)
      Metadata:
        HANDLER_NAME    : SoundHandler
        VENDOR_ID       : [0][0][0][0]
        _STATISTICS_TAGS: BPS DURATION NUMBER_OF_FRAMES NUMBER_OF_BYTES
        BPS             : 193194
        DURATION        : 00:24:06.784000000
        NUMBER_OF_FRAMES: 67819
        NUMBER_OF_BYTES : 34938755
        _STATISTICS_WRITING_APP: mkvpropedit v94.0 ('Initiate') 64-bit
        _STATISTICS_WRITING_DATE_UTC: 2026-01-14 09:58:03
        encoder         : Lavc61.19.100 pcm_s16le
frame=  135 fps=0.0 q=-0.0 size=N/A time=00:00:05.63 bitrate=N/A speed=  11x    frame=  319 fps=308 q=-0.0 size=N/A time=00:00:13.30 bitrate=N/A speed=12.8x    frame=  511 fps=330 q=-0.0 size=N/A time=00:00:21.31 bitrate=N/A speed=13.8x    frame=  699 fps=339 q=-0.0 size=N/A time=00:00:29.15 bitrate=N/A speed=14.2x    frame=  882 fps=343 q=-0.0 size=N/A time=00:00:36.78 bitrate=N/A speed=14.3x    frame= 1022 fps=330 q=-0.0 size=N/A time=00:00:42.62 bitrate=N/A speed=13.8x    frame= 1183 fps=328 q=-0.0 size=N/A time=00:00:49.34 bitrate=N/A speed=13.7x    frame= 1350 fps=328 q=-0.0 size=N/A time=00:00:56.30 bitrate=N/A speed=13.7x    frame= 1508 fps=326 q=-0.0 size=N/A time=00:01:02.89 bitrate=N/A speed=13.6x    frame= 1652 fps=321 q=-0.0 size=N/A time=00:01:08.90 bitrate=N/A speed=13.4x    frame= 1808 fps=319 q=-0.0 size=N/A time=00:01:15.40 bitrate=N/A speed=13.3x    frame= 1974 fps=320 q=-0.0 size=N/A time=00:01:22.33 bitrate=N/A speed=13.3x    frame= 2096 fps=313 q=-0.0 size=N/A time=00:01:27.42 bitrate=N/A speed=  13x    frame= 2245 fps=311 q=-0.0 size=N/A time=00:01:33.63 bitrate=N/A speed=  13x    frame= 2389 fps=309 q=-0.0 size=N/A time=00:01:39.64 bitrate=N/A speed=12.9x    frame= 2525 fps=306 q=-0.0 size=N/A time=00:01:45.31 bitrate=N/A speed=12.8x    frame= 2676 fps=305 q=-0.0 size=N/A time=00:01:51.61 bitrate=N/A speed=12.7x    frame= 2843 fps=306 q=-0.0 size=N/A time=00:01:58.57 bitrate=N/A speed=12.8x    frame= 3014 fps=308 q=-0.0 size=N/A time=00:02:05.70 bitrate=N/A speed=12.8x    frame= 3212 fps=311 q=-0.0 size=N/A time=00:02:13.96 bitrate=N/A speed=  13x    frame= 3400 fps=314 q=-0.0 size=N/A time=00:02:21.80 bitrate=N/A speed=13.1x    frame= 3582 fps=316 q=-0.0 size=N/A time=00:02:29.39 bitrate=N/A speed=13.2x    frame= 3773 fps=318 q=-0.0 size=N/A time=00:02:37.36 bitrate=N/A speed=13.3x    frame= 3961 fps=320 q=-0.0 size=N/A time=00:02:45.20 bitrate=N/A speed=13.3x    frame= 4141 fps=321 q=-0.0 size=N/A time=00:02:52.71 bitrate=N/A speed=13.4x    frame= 4322 fps=322 q=-0.0 size=N/A time=00:03:00.26 bitrate=N/A speed=13.4x    frame= 4516 fps=324 q=-0.0 size=N/A time=00:03:08.35 bitrate=N/A speed=13.5x    frame= 4698 fps=325 q=-0.0 size=N/A time=00:03:15.94 bitrate=N/A speed=13.6x    frame= 4876 fps=326 q=-0.0 size=N/A time=00:03:23.36 bitrate=N/A speed=13.6x    frame= 5069 fps=327 q=-0.0 size=N/A time=00:03:31.41 bitrate=N/A speed=13.6x    frame= 5247 fps=328 q=-0.0 size=N/A time=00:03:38.84 bitrate=N/A speed=13.7x    frame= 5429 fps=329 q=-0.0 size=N/A time=00:03:46.43 bitrate=N/A speed=13.7x    frame= 5622 fps=330 q=-0.0 size=N/A time=00:03:54.48 bitrate=N/A speed=13.8x    frame= 5801 fps=330 q=-0.0 size=N/A time=00:04:01.95 bitrate=N/A speed=13.8x    frame= 5984 fps=331 q=-0.0 size=N/A time=00:04:09.58 bitrate=N/A speed=13.8x    frame= 6179 fps=332 q=-0.0 size=N/A time=00:04:17.71 bitrate=N/A speed=13.9x    frame= 6363 fps=333 q=-0.0 size=N/A time=00:04:25.39 bitrate=N/A speed=13.9x    frame= 6543 fps=333 q=-0.0 size=N/A time=00:04:32.89 bitrate=N/A speed=13.9x    frame= 6735 fps=334 q=-0.0 size=N/A time=00:04:40.90 bitrate=N/A speed=13.9x    frame= 6913 fps=334 q=-0.0 size=N/A time=00:04:48.32 bitrate=N/A speed=13.9x    frame= 7086 fps=334 q=-0.0 size=N/A time=00:04:55.54 bitrate=N/A speed=  14x    frame= 7268 fps=335 q=-0.0 size=N/A time=00:05:03.13 bitrate=N/A speed=  14x    frame= 7448 fps=335 q=-0.0 size=N/A time=00:05:10.64 bitrate=N/A speed=  14x    frame= 7624 fps=335 q=-0.0 size=N/A time=00:05:17.98 bitrate=N/A speed=  14x    frame= 7801 fps=336 q=-0.0 size=N/A time=00:05:25.36 bitrate=N/A speed=  14x    frame= 7989 fps=336 q=-0.0 size=N/A time=00:05:33.20 bitrate=N/A speed=  14x    frame= 8169 fps=336 q=-0.0 size=N/A time=00:05:40.71 bitrate=N/A speed=  14x    frame= 8350 fps=337 q=-0.0 size=N/A time=00:05:48.26 bitrate=N/A speed=  14x    frame= 8527 fps=337 q=-0.0 size=N/A time=00:05:55.64 bitrate=N/A speed=14.1x    frame= 8713 fps=337 q=-0.0 size=N/A time=00:06:03.40 bitrate=N/A speed=14.1x    frame= 8892 fps=338 q=-0.0 size=N/A time=00:06:10.87 bitrate=N/A speed=14.1x    frame= 9075 fps=338 q=-0.0 size=N/A time=00:06:18.50 bitrate=N/A speed=14.1x    frame= 9258 fps=338 q=-0.0 size=N/A time=00:06:26.13 bitrate=N/A speed=14.1x    frame= 9440 fps=338 q=-0.0 size=N/A time=00:06:33.72 bitrate=N/A speed=14.1x    frame= 9625 fps=339 q=-0.0 size=N/A time=00:06:41.44 bitrate=N/A speed=14.1x    frame= 9805 fps=339 q=-0.0 size=N/A time=00:06:48.95 bitrate=N/A speed=14.1x    frame= 9990 fps=339 q=-0.0 size=N/A time=00:06:56.66 bitrate=N/A speed=14.2x    frame=10169 fps=340 q=-0.0 size=N/A time=00:07:04.13 bitrate=N/A speed=14.2x    frame=10349 fps=340 q=-0.0 size=N/A time=00:07:11.63 bitrate=N/A speed=14.2x    frame=10536 fps=340 q=-0.0 size=N/A time=00:07:19.43 bitrate=N/A speed=14.2x    frame=10713 fps=340 q=-0.0 size=N/A time=00:07:26.82 bitrate=N/A speed=14.2x    frame=10896 fps=340 q=-0.0 size=N/A time=00:07:34.45 bitrate=N/A speed=14.2x    frame=11084 fps=341 q=-0.0 size=N/A time=00:07:42.29 bitrate=N/A speed=14.2x    frame=11259 fps=341 q=-0.0 size=N/A time=00:07:49.59 bitrate=N/A speed=14.2x    frame=11434 fps=341 q=-0.0 size=N/A time=00:07:56.89 bitrate=N/A speed=14.2x    frame=11623 fps=341 q=-0.0 size=N/A time=00:08:04.77 bitrate=N/A speed=14.2x    frame=11808 fps=341 q=-0.0 size=N/A time=00:08:12.49 bitrate=N/A speed=14.2x    frame=11974 fps=341 q=-0.0 size=N/A time=00:08:19.41 bitrate=N/A speed=14.2x    frame=12164 fps=341 q=-0.0 size=N/A time=00:08:27.34 bitrate=N/A speed=14.2x    frame=12347 fps=342 q=-0.0 size=N/A time=00:08:34.97 bitrate=N/A speed=14.2x    frame=12526 fps=342 q=-0.0 size=N/A time=00:08:42.43 bitrate=N/A speed=14.3x    frame=12710 fps=342 q=-0.0 size=N/A time=00:08:50.11 bitrate=N/A speed=14.3x    frame=12902 fps=342 q=-0.0 size=N/A time=00:08:58.12 bitrate=N/A speed=14.3x    frame=13082 fps=342 q=-0.0 size=N/A time=00:09:05.62 bitrate=N/A speed=14.3x    frame=13263 fps=343 q=-0.0 size=N/A time=00:09:13.17 bitrate=N/A speed=14.3x    frame=13422 fps=342 q=-0.0 size=N/A time=00:09:19.80 bitrate=N/A speed=14.3x    frame=13596 fps=342 q=-0.0 size=N/A time=00:09:27.06 bitrate=N/A speed=14.3x    frame=13781 fps=342 q=-0.0 size=N/A time=00:09:34.78 bitrate=N/A speed=14.3x    frame=13960 fps=342 q=-0.0 size=N/A time=00:09:42.24 bitrate=N/A speed=14.3x    frame=14137 fps=342 q=-0.0 size=N/A time=00:09:49.63 bitrate=N/A speed=14.3x    frame=14317 fps=342 q=-0.0 size=N/A time=00:09:57.13 bitrate=N/A speed=14.3x    frame=14495 fps=342 q=-0.0 size=N/A time=00:10:04.56 bitrate=N/A speed=14.3x    frame=14677 fps=343 q=-0.0 size=N/A time=00:10:12.15 bitrate=N/A speed=14.3x    frame=14868 fps=343 q=-0.0 size=N/A time=00:10:20.11 bitrate=N/A speed=14.3x    frame=15053 fps=343 q=-0.0 size=N/A time=00:10:27.83 bitrate=N/A speed=14.3x    frame=15211 fps=343 q=-0.0 size=N/A time=00:10:34.42 bitrate=N/A speed=14.3x    frame=15389 fps=343 q=-0.0 size=N/A time=00:10:41.84 bitrate=N/A speed=14.3x    frame=15572 fps=343 q=-0.0 size=N/A time=00:10:49.48 bitrate=N/A speed=14.3x    frame=15754 fps=343 q=-0.0 size=N/A time=00:10:57.07 bitrate=N/A speed=14.3x    frame=15932 fps=343 q=-0.0 size=N/A time=00:11:04.49 bitrate=N/A speed=14.3x    frame=16120 fps=343 q=-0.0 size=N/A time=00:11:12.33 bitrate=N/A speed=14.3x    frame=16307 fps=343 q=-0.0 size=N/A time=00:11:20.13 bitrate=N/A speed=14.3x    frame=16488 fps=344 q=-0.0 size=N/A time=00:11:27.68 bitrate=N/A speed=14.3x    frame=16678 fps=344 q=-0.0 size=N/A time=00:11:35.61 bitrate=N/A speed=14.3x    frame=16858 fps=344 q=-0.0 size=N/A time=00:11:43.11 bitrate=N/A speed=14.3x    frame=17035 fps=344 q=-0.0 size=N/A time=00:11:50.50 bitrate=N/A speed=14.3x    frame=17218 fps=344 q=-0.0 size=N/A time=00:11:58.13 bitrate=N/A speed=14.3x    frame=17404 fps=344 q=-0.0 size=N/A time=00:12:05.89 bitrate=N/A speed=14.4x    frame=17583 fps=344 q=-0.0 size=N/A time=00:12:13.35 bitrate=N/A speed=14.4x    frame=17758 fps=344 q=-0.0 size=N/A time=00:12:20.65 bitrate=N/A speed=14.4x    frame=17942 fps=344 q=-0.0 size=N/A time=00:12:28.33 bitrate=N/A speed=14.4x    frame=18127 fps=344 q=-0.0 size=N/A time=00:12:36.04 bitrate=N/A speed=14.4x    frame=18290 fps=344 q=-0.0 size=N/A time=00:12:42.84 bitrate=N/A speed=14.4x    frame=18472 fps=344 q=-0.0 size=N/A time=00:12:50.43 bitrate=N/A speed=14.4x    frame=18661 fps=344 q=-0.0 size=N/A time=00:12:58.31 bitrate=N/A speed=14.4x    frame=18845 fps=345 q=-0.0 size=N/A time=00:13:05.99 bitrate=N/A speed=14.4x    frame=19037 fps=345 q=-0.0 size=N/A time=00:13:14.00 bitrate=N/A speed=14.4x    frame=19216 fps=345 q=-0.0 size=N/A time=00:13:21.46 bitrate=N/A speed=14.4x    frame=19413 fps=345 q=-0.0 size=N/A time=00:13:29.68 bitrate=N/A speed=14.4x    frame=19599 fps=345 q=-0.0 size=N/A time=00:13:37.44 bitrate=N/A speed=14.4x    frame=19781 fps=345 q=-0.0 size=N/A time=00:13:45.03 bitrate=N/A speed=14.4x    frame=19966 fps=345 q=-0.0 size=N/A time=00:13:52.74 bitrate=N/A speed=14.4x    frame=20150 fps=346 q=-0.0 size=N/A time=00:14:00.42 bitrate=N/A speed=14.4x    frame=20344 fps=346 q=-0.0 size=N/A time=00:14:08.51 bitrate=N/A speed=14.4x    frame=20520 fps=346 q=-0.0 size=N/A time=00:14:15.85 bitrate=N/A speed=14.4x    frame=20689 fps=346 q=-0.0 size=N/A time=00:14:22.90 bitrate=N/A speed=14.4x    frame=20880 fps=346 q=-0.0 size=N/A time=00:14:30.87 bitrate=N/A speed=14.4x    frame=21067 fps=346 q=-0.0 size=N/A time=00:14:38.66 bitrate=N/A speed=14.4x    frame=21243 fps=346 q=-0.0 size=N/A time=00:14:46.01 bitrate=N/A speed=14.4x    frame=21428 fps=346 q=-0.0 size=N/A time=00:14:53.72 bitrate=N/A speed=14.4x    frame=21611 fps=346 q=-0.0 size=N/A time=00:15:01.35 bitrate=N/A speed=14.4x    frame=21801 fps=346 q=-0.0 size=N/A time=00:15:09.28 bitrate=N/A speed=14.4x    frame=21977 fps=346 q=-0.0 size=N/A time=00:15:16.62 bitrate=N/A speed=14.4x    frame=22168 fps=346 q=-0.0 size=N/A time=00:15:24.59 bitrate=N/A speed=14.4x    frame=22353 fps=347 q=-0.0 size=N/A time=00:15:32.30 bitrate=N/A speed=14.5x    frame=22539 fps=347 q=-0.0 size=N/A time=00:15:40.06 bitrate=N/A speed=14.5x    frame=22717 fps=347 q=-0.0 size=N/A time=00:15:47.48 bitrate=N/A speed=14.5x    frame=22899 fps=347 q=-0.0 size=N/A time=00:15:55.07 bitrate=N/A speed=14.5x    frame=23085 fps=347 q=-0.0 size=N/A time=00:16:02.83 bitrate=N/A speed=14.5x    frame=23265 fps=347 q=-0.0 size=N/A time=00:16:10.34 bitrate=N/A speed=14.5x    frame=23457 fps=347 q=-0.0 size=N/A time=00:16:18.35 bitrate=N/A speed=14.5x    frame=23646 fps=347 q=-0.0 size=N/A time=00:16:26.23 bitrate=N/A speed=14.5x    frame=23827 fps=347 q=-0.0 size=N/A time=00:16:33.78 bitrate=N/A speed=14.5x    frame=24015 fps=347 q=-0.0 size=N/A time=00:16:41.62 bitrate=N/A speed=14.5x    frame=24198 fps=347 q=-0.0 size=N/A time=00:16:49.25 bitrate=N/A speed=14.5x    frame=24380 fps=347 q=-0.0 size=N/A time=00:16:56.84 bitrate=N/A speed=14.5x    frame=24568 fps=348 q=-0.0 size=N/A time=00:17:04.69 bitrate=N/A speed=14.5x    frame=24755 fps=348 q=-0.0 size=N/A time=00:17:12.48 bitrate=N/A speed=14.5x    frame=24937 fps=348 q=-0.0 size=N/A time=00:17:20.08 bitrate=N/A speed=14.5x    frame=25126 fps=348 q=-0.0 size=N/A time=00:17:27.96 bitrate=N/A speed=14.5x    frame=25313 fps=348 q=-0.0 size=N/A time=00:17:35.76 bitrate=N/A speed=14.5x    frame=25495 fps=348 q=-0.0 size=N/A time=00:17:43.35 bitrate=N/A speed=14.5x    frame=25682 fps=348 q=-0.0 size=N/A time=00:17:51.15 bitrate=N/A speed=14.5x    frame=25864 fps=348 q=-0.0 size=N/A time=00:17:58.74 bitrate=N/A speed=14.5x    frame=26051 fps=348 q=-0.0 size=N/A time=00:18:06.54 bitrate=N/A speed=14.5x    frame=26234 fps=348 q=-0.0 size=N/A time=00:18:14.17 bitrate=N/A speed=14.5x    frame=26421 fps=348 q=-0.0 size=N/A time=00:18:21.97 bitrate=N/A speed=14.5x    frame=26611 fps=348 q=-0.0 size=N/A time=00:18:29.90 bitrate=N/A speed=14.5x    frame=26798 fps=349 q=-0.0 size=N/A time=00:18:37.69 bitrate=N/A speed=14.5x    frame=26968 fps=348 q=-0.0 size=N/A time=00:18:44.79 bitrate=N/A speed=14.5x    frame=27135 fps=348 q=-0.0 size=N/A time=00:18:51.75 bitrate=N/A speed=14.5x    frame=27314 fps=348 q=-0.0 size=N/A time=00:18:59.22 bitrate=N/A speed=14.5x    frame=27490 fps=348 q=-0.0 size=N/A time=00:19:06.56 bitrate=N/A speed=14.5x    frame=27669 fps=348 q=-0.0 size=N/A time=00:19:14.02 bitrate=N/A speed=14.5x    frame=27850 fps=348 q=-0.0 size=N/A time=00:19:21.57 bitrate=N/A speed=14.5x    frame=28030 fps=348 q=-0.0 size=N/A time=00:19:29.08 bitrate=N/A speed=14.5x    frame=28205 fps=348 q=-0.0 size=N/A time=00:19:36.38 bitrate=N/A speed=14.5x    frame=28390 fps=348 q=-0.0 size=N/A time=00:19:44.09 bitrate=N/A speed=14.5x    frame=28571 fps=348 q=-0.0 size=N/A time=00:19:51.64 bitrate=N/A speed=14.5x    frame=28745 fps=348 q=-0.0 size=N/A time=00:19:58.90 bitrate=N/A speed=14.5x    frame=28916 fps=348 q=-0.0 size=N/A time=00:20:06.03 bitrate=N/A speed=14.5x    frame=29079 fps=348 q=-0.0 size=N/A time=00:20:12.83 bitrate=N/A speed=14.5x    frame=29257 fps=348 q=-0.0 size=N/A time=00:20:20.26 bitrate=N/A speed=14.5x    frame=29429 fps=348 q=-0.0 size=N/A time=00:20:27.43 bitrate=N/A speed=14.5x    frame=29588 fps=348 q=-0.0 size=N/A time=00:20:34.06 bitrate=N/A speed=14.5x    frame=29765 fps=348 q=-0.0 size=N/A time=00:20:41.44 bitrate=N/A speed=14.5x    frame=29935 fps=347 q=-0.0 size=N/A time=00:20:48.53 bitrate=N/A speed=14.5x    frame=30093 fps=347 q=-0.0 size=N/A time=00:20:55.12 bitrate=N/A speed=14.5x    frame=30276 fps=347 q=-0.0 size=N/A time=00:21:02.76 bitrate=N/A speed=14.5x    frame=30457 fps=347 q=-0.0 size=N/A time=00:21:10.31 bitrate=N/A speed=14.5x    frame=30637 fps=347 q=-0.0 size=N/A time=00:21:17.81 bitrate=N/A speed=14.5x    frame=30821 fps=347 q=-0.0 size=N/A time=00:21:25.49 bitrate=N/A speed=14.5x    frame=31013 fps=347 q=-0.0 size=N/A time=00:21:33.50 bitrate=N/A speed=14.5x    frame=31189 fps=347 q=-0.0 size=N/A time=00:21:40.84 bitrate=N/A speed=14.5x    frame=31367 fps=347 q=-0.0 size=N/A time=00:21:48.26 bitrate=N/A speed=14.5x    frame=31555 fps=348 q=-0.0 size=N/A time=00:21:56.10 bitrate=N/A speed=14.5x    frame=31734 fps=348 q=-0.0 size=N/A time=00:22:03.57 bitrate=N/A speed=14.5x    frame=31904 fps=347 q=-0.0 size=N/A time=00:22:10.66 bitrate=N/A speed=14.5x    frame=32083 fps=347 q=-0.0 size=N/A time=00:22:18.12 bitrate=N/A speed=14.5x    frame=32271 fps=347 q=-0.0 size=N/A time=00:22:25.96 bitrate=N/A speed=14.5x    frame=32450 fps=347 q=-0.0 size=N/A time=00:22:33.43 bitrate=N/A speed=14.5x    frame=32630 fps=347 q=-0.0 size=N/A time=00:22:40.94 bitrate=N/A speed=14.5x    frame=32776 fps=347 q=-0.0 size=N/A time=00:22:47.03 bitrate=N/A speed=14.5x    frame=32936 fps=347 q=-0.0 size=N/A time=00:22:53.70 bitrate=N/A speed=14.5x    frame=33110 fps=347 q=-0.0 size=N/A time=00:23:00.96 bitrate=N/A speed=14.5x    frame=33286 fps=347 q=-0.0 size=N/A time=00:23:08.30 bitrate=N/A speed=14.5x    frame=33458 fps=347 q=-0.0 size=N/A time=00:23:15.47 bitrate=N/A speed=14.5x    frame=33603 fps=346 q=-0.0 size=N/A time=00:23:21.52 bitrate=N/A speed=14.4x    frame=33747 fps=346 q=-0.0 size=N/A time=00:23:27.53 bitrate=N/A speed=14.4x    frame=33879 fps=346 q=-0.0 size=N/A time=00:23:33.03 bitrate=N/A speed=14.4x    frame=34037 fps=345 q=-0.0 size=N/A time=00:23:39.62 bitrate=N/A speed=14.4x    frame=34188 fps=345 q=-0.0 size=N/A time=00:23:45.92 bitrate=N/A speed=14.4x    frame=34301 fps=344 q=-0.0 size=N/A time=00:23:50.63 bitrate=N/A speed=14.4x    frame=34425 fps=344 q=-0.0 size=N/A time=00:23:55.80 bitrate=N/A speed=14.3x    frame=34588 fps=344 q=-0.0 size=N/A time=00:24:02.60 bitrate=N/A speed=14.3x    [Parsed_ssim_16 @ 000001a25f443980] SSIM Y:0.994162 (22.337223) U:0.993977 (22.201869) V:0.993585 (21.928267) All:0.994035 (22.243848)
[out#0/null @ 000001a251ebfe80] video:14903KiB audio:271276KiB subtitle:0KiB other streams:0KiB global headers:0KiB muxing overhead: unknown
frame=34683 fps=344 q=-0.0 Lsize=N/A time=00:24:06.57 bitrate=N/A speed=14.3x    
